<?xml version="1.0" standalone="no"?>
<!DOCTYPE svg PUBLIC "-//W3C//DTD SVG 20010904//EN"
 "http://www.w3.org/TR/2001/REC-SVG-20010904/DTD/svg10.dtd">
<svg version="1.0" xmlns="http://www.w3.org/2000/svg"
 width="1254.000000pt" height="1254.000000pt" viewBox="0 0 1254.000000 1254.000000"
 preserveAspectRatio="xMidYMid meet">

<g transform="translate(0.000000,1254.000000) scale(0.100000,-0.100000)"
fill="#000000" stroke="none">
<path d="M6233 11718 c-370 -37 -632 -409 -694 -983 -13 -120 -7 -486 10 -615
5 -41 12 -97 15 -125 l6 -50 -62 110 c-187 328 -425 541 -674 605 -379 97
-700 -157 -696 -550 3 -373 256 -790 798 -1320 99 -96 232 -220 296 -274 l117
-99 -86 -53 c-142 -90 -214 -150 -321 -268 -242 -267 -368 -601 -403 -1066
-22 -298 17 -743 122 -1380 51 -312 149 -820 214 -1105 138 -607 199 -857 310
-1255 82 -292 103 -366 161 -555 233 -763 426 -1109 689 -1235 79 -38 133 -50
225 -50 94 0 148 13 229 53 82 40 216 166 284 266 220 327 409 908 686 2111
228 990 384 1833 462 2490 26 220 36 623 20 776 -23 222 -81 442 -160 607
-118 247 -321 471 -556 613 l-84 52 132 120 c73 66 222 212 332 323 452 460
663 770 731 1076 23 106 16 295 -16 376 -41 108 -149 215 -260 259 -77 30
-232 36 -336 13 -230 -51 -485 -259 -682 -556 -88 -134 -84 -128 -77 -97 43
217 69 527 62 757 -8 274 -42 430 -139 628 -47 97 -73 137 -128 196 -152 163
-315 226 -527 205z m163 -109 c101 -18 180 -63 264 -148 87 -89 130 -158 176
-279 178 -474 86 -1249 -283 -2386 l-58 -179 -80 2 c-44 1 -94 4 -111 7 l-31
6 -7 120 c-18 339 -4 1140 25 1446 6 61 7 121 4 132 -8 26 -60 28 -69 3 -11
-27 -34 -269 -45 -472 -12 -210 -13 -864 -2 -1081 4 -80 5 -148 2 -151 -3 -4
-48 -9 -100 -10 l-95 -4 -43 145 c-258 867 -361 1605 -287 2060 89 550 376
856 740 789z m-1535 -1069 c240 -87 457 -324 632 -690 94 -195 155 -370 203
-575 38 -164 111 -435 158 -583 14 -46 26 -87 26 -91 0 -11 -114 -34 -118 -23
-1 4 -37 71 -78 147 -159 291 -314 514 -508 734 -143 162 -189 192 -217 139
-9 -16 2 -32 77 -111 197 -209 398 -488 552 -767 44 -80 82 -151 84 -158 4
-16 -209 -95 -226 -85 -64 37 -332 281 -526 479 -439 448 -657 807 -677 1114
-7 108 8 187 52 277 56 113 164 196 290 223 69 15 188 2 276 -30z m3114 -54
c116 -31 204 -107 246 -212 32 -80 32 -241 1 -359 -28 -103 -135 -315 -217
-430 -182 -254 -558 -656 -886 -947 l-76 -68 -109 39 c-59 21 -110 43 -112 49
-4 12 109 224 177 335 130 213 239 362 384 526 53 61 97 115 97 120 0 15 -30
41 -47 41 -20 0 -116 -100 -228 -240 -156 -195 -258 -352 -398 -613 l-82 -152
-57 10 c-31 5 -59 13 -62 16 -4 3 1 26 10 50 36 101 128 396 175 564 79 283
191 531 343 760 256 383 580 581 841 511z m-1431 -1991 c524 -79 915 -344
1126 -765 140 -278 198 -629 171 -1035 -7 -104 -13 -191 -15 -192 -1 -1 -32
13 -69 33 -162 86 -353 132 -588 141 -163 7 -195 2 -204 -28 -13 -38 8 -46
152 -53 271 -12 495 -71 647 -168 l48 -32 -6 -75 c-14 -149 -150 -1017 -161
-1030 -2 -2 -16 6 -32 17 -92 65 -296 147 -442 177 -98 20 -306 38 -358 30
-55 -8 -73 -35 -43 -65 17 -17 33 -20 109 -20 150 0 339 -40 500 -107 108 -44
241 -129 241 -153 0 -57 -278 -1366 -295 -1388 -1 -1 -33 16 -71 39 -85 52
-228 104 -338 123 -92 17 -246 23 -264 12 -14 -8 -16 -52 -3 -60 5 -4 55 -11
110 -16 194 -20 415 -97 509 -177 l34 -28 -76 -305 c-211 -853 -384 -1334
-572 -1583 -139 -184 -298 -259 -473 -223 -255 53 -435 312 -646 926 -52 154
-121 373 -150 483 l-13 47 44 34 c99 76 288 134 464 143 129 6 150 13 150 48
0 40 -30 48 -149 41 -192 -13 -350 -55 -472 -125 l-67 -38 -10 36 c-76 258
-322 1238 -322 1282 0 23 118 101 215 143 174 75 362 115 584 125 122 5 146 9
155 24 8 12 8 22 0 35 -10 15 -30 17 -190 16 -194 0 -304 -17 -461 -69 -89
-30 -249 -104 -294 -136 -16 -11 -32 -19 -34 -17 -17 17 -235 1141 -235 1211
0 8 26 32 57 53 115 76 296 129 483 140 115 7 140 15 140 43 0 38 -24 44 -158
39 -167 -7 -316 -43 -446 -106 l-95 -47 -6 25 c-23 117 -69 537 -81 750 l-6
116 61 43 c216 151 568 245 975 260 153 5 180 8 190 23 8 13 6 22 -8 37 -18
20 -30 21 -195 21 -189 0 -289 -9 -444 -41 -189 -39 -411 -120 -524 -192 -24
-15 -45 -27 -49 -27 -9 0 4 168 22 308 48 355 191 649 431 883 231 226 584
374 978 409 124 11 343 4 469 -15z"/>
</g>
</svg>
