<?xml version="1.0" standalone="no"?>
<!DOCTYPE svg PUBLIC "-//W3C//DTD SVG 20010904//EN"
 "http://www.w3.org/TR/2001/REC-SVG-20010904/DTD/svg10.dtd">
<svg version="1.0" xmlns="http://www.w3.org/2000/svg"
 width="114.000000pt" height="102.000000pt" viewBox="0 0 114.000000 102.000000"
 preserveAspectRatio="xMidYMid meet">

<g transform="translate(0.000000,102.000000) scale(0.100000,-0.100000)"
fill="#000000" stroke="none">
<path d="M89 969 c-46 -49 -71 -145 -72 -269 0 -117 13 -195 50 -315 30 -96
100 -241 150 -310 45 -61 56 -43 13 20 -54 79 -129 249 -156 352 -71 274 -18
559 98 530 64 -16 148 -148 192 -300 42 -146 59 -292 53 -464 -2 -84 -1 -153
3 -153 27 0 27 317 0 472 -59 342 -220 555 -331 437z"/>
<path d="M945 976 c-76 -33 -178 -201 -225 -368 -40 -148 -58 -346 -44 -487
12 -108 21 -65 21 92 -1 303 78 571 204 699 77 78 134 75 170 -7 72 -162 -14
-530 -185 -794 -30 -47 -41 -71 -31 -71 20 0 117 167 164 282 78 189 108 350
91 484 -20 158 -71 211 -165 170z"/>
<path d="M332 80 c0 -14 2 -19 5 -12 2 6 2 18 0 25 -3 6 -5 1 -5 -13z"/>
</g>
</svg>
