<?xml version="1.0" standalone="no"?>
<!DOCTYPE svg PUBLIC "-//W3C//DTD SVG 20010904//EN"
 "http://www.w3.org/TR/2001/REC-SVG-20010904/DTD/svg10.dtd">
<svg version="1.0" xmlns="http://www.w3.org/2000/svg"
 width="60.000000pt" height="82.000000pt" viewBox="0 0 60.000000 82.000000"
 preserveAspectRatio="xMidYMid meet">

<g transform="translate(0.000000,82.000000) scale(0.100000,-0.100000)"
fill="#000000" stroke="none">
<path d="M251 681 c-40 -40 -34 -121 8 -121 45 0 77 85 46 120 -22 25 -30 25
-54 1z m41 -47 c-4 -30 -18 -54 -33 -54 -13 0 -11 64 3 78 19 19 33 8 30 -24z"/>
<path d="M402 683 c-17 -7 -42 -57 -42 -86 0 -55 58 -59 85 -7 32 62 9 114
-43 93z m34 -38 c7 -17 -21 -65 -36 -65 -14 0 -12 54 2 68 16 16 27 15 34 -3z"/>
<path d="M490 550 c-59 -59 -15 -146 46 -89 38 35 29 109 -13 109 -7 0 -22 -9
-33 -20z m44 -19 c11 -18 -13 -61 -34 -61 -24 0 -25 13 -4 45 17 26 29 31 38
16z"/>
<path d="M252 484 c-12 -8 -22 -20 -22 -26 0 -7 5 -6 14 1 8 7 34 12 57 13 36
0 48 -5 71 -31 47 -52 30 -124 -49 -211 -43 -48 -81 -53 -118 -15 -29 28 -32
62 -9 128 22 64 11 83 -15 27 -12 -27 -21 -66 -21 -98 0 -72 28 -102 96 -102
42 0 51 4 84 39 54 56 94 142 86 184 -8 45 -33 77 -72 93 -43 18 -74 18 -102
-2z"/>
</g>
</svg>
