<?xml version="1.0" standalone="no"?>
<!DOCTYPE svg PUBLIC "-//W3C//DTD SVG 20010904//EN"
 "http://www.w3.org/TR/2001/REC-SVG-20010904/DTD/svg10.dtd">
<svg version="1.0" xmlns="http://www.w3.org/2000/svg"
 width="256.000000pt" height="309.000000pt" viewBox="0 0 256.000000 309.000000"
 preserveAspectRatio="xMidYMid meet">

<g transform="translate(0.000000,309.000000) scale(0.100000,-0.100000)"
fill="#000000" stroke="none">
<path d="M404 2901 c-138 -84 -180 -451 -98 -861 51 -257 188 -596 317 -789
l57 -84 -22 -16 c-48 -32 -132 -118 -173 -176 -85 -120 -138 -254 -156 -397
-8 -56 -16 -88 -24 -88 -22 0 -94 -59 -110 -89 -8 -17 -15 -51 -15 -77 0 -39
5 -51 35 -81 34 -34 38 -35 86 -29 37 5 55 3 71 -9 27 -18 71 -20 101 -3 12 6
48 12 79 12 48 1 62 5 83 27 51 50 48 138 -7 196 -43 46 -96 66 -191 71 l-87
4 5 37 c39 241 135 427 282 547 28 23 60 47 70 53 13 7 15 14 8 24 -171 246
-281 485 -350 762 -45 179 -65 329 -65 488 0 547 224 622 456 152 149 -302
230 -670 241 -1088 l6 -218 22 5 c78 20 229 27 317 16 51 -7 101 -13 112 -14
17 -1 18 7 17 109 -6 413 94 908 244 1205 76 152 165 257 241 286 40 15 45 15
81 -2 42 -21 73 -73 99 -165 22 -75 30 -373 14 -492 -42 -320 -182 -705 -349
-960 -28 -43 -51 -81 -51 -86 0 -5 12 -17 28 -27 48 -31 143 -127 188 -191 78
-108 135 -255 151 -392 l5 -48 -78 -5 c-81 -5 -129 -22 -172 -62 -102 -92 -50
-255 73 -232 25 5 42 2 57 -9 27 -18 81 -20 111 -3 12 6 48 12 80 12 53 1 61
4 88 34 67 75 18 202 -95 243 -33 12 -34 15 -41 77 -22 209 -140 433 -291 555
-35 28 -64 52 -64 53 0 1 25 42 56 90 222 355 372 885 351 1240 -23 368 -158
508 -336 348 -234 -210 -421 -837 -421 -1411 l0 -132 -67 7 c-88 9 -191 9
-274 -1 l-66 -7 -6 207 c-7 250 -31 420 -92 657 -129 504 -366 828 -531 727z
m1767 -2437 c68 -21 119 -84 119 -145 0 -31 -53 -79 -87 -79 -16 0 -34 5 -40
11 -9 9 -19 6 -39 -10 -34 -27 -91 -28 -119 -1 -18 17 -25 18 -52 8 -39 -14
-74 -1 -99 37 -21 32 -12 84 22 125 33 39 56 51 124 66 59 13 99 10 171 -12z
m-1640 1 c116 -41 155 -165 67 -214 -22 -13 -33 -14 -59 -4 -28 11 -35 10 -57
-7 -32 -26 -83 -25 -116 1 -20 16 -30 19 -39 10 -19 -19 -66 -13 -92 14 -60
60 -13 166 90 203 45 16 157 14 206 -3z"/>
<path d="M1920 2296 c0 -2 7 -7 16 -10 8 -3 12 -2 9 4 -6 10 -25 14 -25 6z"/>
<path d="M1610 1251 c0 -6 4 -13 10 -16 6 -3 7 1 4 9 -7 18 -14 21 -14 7z"/>
<path d="M826 1228 c3 -5 10 -6 15 -3 13 9 11 12 -6 12 -8 0 -12 -4 -9 -9z"/>
<path d="M805 625 c-52 -51 -23 -185 40 -185 68 0 85 151 22 195 -29 20 -34
19 -62 -10z"/>
<path d="M1613 635 c-63 -44 -46 -195 22 -195 63 0 92 134 40 185 -28 29 -33
30 -62 10z"/>
</g>
</svg>
