<?xml version="1.0" standalone="no"?>
<!DOCTYPE svg PUBLIC "-//W3C//DTD SVG 20010904//EN"
 "http://www.w3.org/TR/2001/REC-SVG-20010904/DTD/svg10.dtd">
<svg version="1.0" xmlns="http://www.w3.org/2000/svg"
 width="132.000000pt" height="159.000000pt" viewBox="0 0 132.000000 159.000000"
 preserveAspectRatio="xMidYMid meet">

<g transform="translate(0.000000,159.000000) scale(0.100000,-0.100000)"
fill="#000000" stroke="none">
<path d="M340 1378 c-59 -95 -82 -290 -46 -387 9 -24 16 -53 16 -65 0 -19 31
-58 131 -164 30 -32 31 -36 24 -95 -16 -156 -71 -240 -191 -297 -69 -34 -79
-58 -14 -35 56 20 126 70 158 113 l27 37 35 -17 c19 -10 50 -18 68 -18 66 0
287 -136 381 -234 19 -20 39 -36 45 -36 17 0 -64 78 -142 137 -91 68 -243 149
-299 158 -22 3 -48 14 -57 24 -15 17 -15 23 -1 77 8 32 15 80 15 107 0 41 5
53 33 82 46 47 89 129 85 162 -5 45 -47 66 -130 67 -40 1 -92 -2 -114 -6 l-42
-8 -11 44 c-24 96 -8 221 44 334 26 57 16 71 -15 20z m208 -419 c17 -6 33 -17
36 -26 12 -30 -71 -163 -101 -163 -23 0 -63 39 -63 61 0 10 -9 21 -20 24 -27
8 -74 71 -67 89 3 8 16 16 29 19 47 9 156 7 186 -4z"/>
<path d="M687 650 c-32 -4 -60 -9 -62 -12 -2 -2 63 -2 144 0 133 4 213 -2 311
-25 18 -4 22 -3 15 6 -28 29 -276 48 -408 31z"/>
<path d="M620 540 c0 -4 39 -15 88 -25 107 -21 226 -58 311 -96 35 -16 66 -27
69 -24 9 9 -141 73 -233 99 -111 32 -235 56 -235 46z"/>
</g>
</svg>
