<?xml version="1.0" standalone="no"?>
<!DOCTYPE svg PUBLIC "-//W3C//DTD SVG 20010904//EN"
 "http://www.w3.org/TR/2001/REC-SVG-20010904/DTD/svg10.dtd">
<svg version="1.0" xmlns="http://www.w3.org/2000/svg"
 width="113.000000pt" height="89.000000pt" viewBox="0 0 113.000000 89.000000"
 preserveAspectRatio="xMidYMid meet">

<g transform="translate(0.000000,89.000000) scale(0.100000,-0.100000)"
fill="#000000" stroke="none">
<path d="M189 845 c-120 -38 -186 -209 -177 -459 6 -191 37 -238 176 -262 62
-11 85 -10 145 2 117 25 153 77 164 236 10 167 -23 328 -86 415 -49 68 -138
95 -222 68z m135 -29 c47 -19 94 -81 116 -153 42 -138 45 -366 5 -443 -16 -30
-68 -70 -92 -70 -9 0 -13 15 -13 44 0 24 -3 59 -7 77 -7 28 -9 20 -13 -46 l-5
-80 -60 0 -60 0 -3 78 c-4 99 -22 101 -22 2 0 -83 -4 -88 -58 -55 -58 35 -76
94 -76 240 -1 214 47 355 136 399 50 24 104 27 152 7z"/>
<path d="M823 841 c-125 -31 -193 -186 -193 -440 0 -209 43 -271 203 -287 75
-8 166 9 202 38 65 51 94 188 75 359 -18 164 -64 265 -138 306 -44 25 -105 34
-149 24z m151 -55 c78 -59 111 -171 111 -376 0 -130 -3 -149 -22 -186 -24 -45
-61 -74 -93 -74 -18 0 -20 6 -20 76 0 47 -4 73 -10 69 -5 -3 -10 -39 -10 -80
0 -79 -4 -85 -60 -85 -56 0 -60 6 -60 85 0 41 -4 77 -10 80 -6 4 -10 -23 -10
-73 0 -78 -1 -80 -22 -75 -73 18 -107 82 -115 213 -12 200 45 385 136 439 52
31 135 25 185 -13z"/>
</g>
</svg>
