<?xml version="1.0" standalone="no"?>
<!DOCTYPE svg PUBLIC "-//W3C//DTD SVG 20010904//EN"
 "http://www.w3.org/TR/2001/REC-SVG-20010904/DTD/svg10.dtd">
<svg version="1.0" xmlns="http://www.w3.org/2000/svg"
 width="57.000000pt" height="100.000000pt" viewBox="0 0 57.000000 100.000000"
 preserveAspectRatio="xMidYMid meet">

<g transform="translate(0.000000,100.000000) scale(0.100000,-0.100000)"
fill="#000000" stroke="none">
<path d="M213 861 c-125 -31 -193 -186 -193 -440 0 -209 43 -271 203 -287 75
-8 166 9 202 38 65 51 94 188 75 359 -18 164 -64 265 -138 306 -44 25 -105 34
-149 24z m151 -55 c78 -59 111 -171 111 -376 0 -130 -3 -149 -22 -186 -24 -45
-61 -74 -93 -74 -18 0 -20 6 -20 76 0 47 -4 73 -10 69 -6 -3 -10 -39 -10 -80
0 -79 -4 -85 -60 -85 -56 0 -60 6 -60 85 0 41 -4 77 -10 80 -6 4 -10 -23 -10
-73 0 -78 -1 -80 -22 -75 -73 18 -107 82 -115 213 -12 200 45 385 136 439 52
31 135 25 185 -13z"/>
</g>
</svg>
